<?xml version="1.0" encoding="utf-8"?>
<!-- Generator: Adobe Illustrator 19.1.0, SVG Export Plug-In . SVG Version: 6.00 Build 0)  -->
<svg version="1.1" id="Layer_1" xmlns:sketch="http://www.bohemiancoding.com/sketch/ns"
	 xmlns="http://www.w3.org/2000/svg" xmlns:xlink="http://www.w3.org/1999/xlink" x="0px" y="0px" viewBox="-469 254.5 53 53"
	 style="enable-background:new -469 254.5 53 53;" xml:space="preserve">
<title>uE009-twitter</title>
<desc>Created with Sketch.</desc>
<g id="Page-1" sketch:type="MSPage">
	<path id="uE009-twitter" sketch:type="MSShapeGroup" d="M-421.4,270.2c0,0.5,0,0.9,0,1.4c0,14.4-10.9,30.9-30.9,30.9
		c-6.1,0-11.9-1.8-16.7-4.9c0.9,0.1,1.7,0.2,2.6,0.2c5.1,0,9.8-1.7,13.5-4.7c-4.8-0.1-8.8-3.2-10.2-7.5c0.7,0.1,1.3,0.2,2,0.2
		c1,0,2-0.1,2.9-0.4c-5-1-8.7-5.4-8.7-10.7v-0.1c1.5,0.8,3.1,1.3,4.9,1.4c-2.9-2-4.8-5.3-4.8-9.1c0-2,0.5-3.9,1.5-5.5
		c5.4,6.6,13.4,10.9,22.4,11.4c-0.2-0.8-0.3-1.6-0.3-2.5c0-6,4.9-10.9,10.9-10.9c3.1,0,6,1.3,7.9,3.4c2.5-0.5,4.8-1.4,6.9-2.6
		c-0.8,2.5-2.5,4.7-4.8,6c2.2-0.3,4.3-0.8,6.2-1.7C-417.5,266.7-419.3,268.7-421.4,270.2L-421.4,270.2z"/>
</g>
</svg>
